<?xml version="1.0" encoding="UTF-8"?>
<svg xmlns="http://www.w3.org/2000/svg" width="117" height="30" viewBox="0 0 117 30" fill="none">
  <path d="M6.22301 22.9002C6.45276 22.6705 6.77143 22.5371 7.11234 22.5371H37.6681C38.2239 22.5371 38.5055 23.2115 38.1127 23.6043L32.0801 29.6369C31.8504 29.8666 31.5317 30 31.1908 30H0.627679C0.0718512 30 -0.209769 29.3256 0.183016 28.9328L6.22301 22.9002Z" fill="url(#paint0_linear_843_467)"></path>
  <path d="M6.22301 0.363141C6.46017 0.133399 6.77884 0 7.11234 0H37.6681C38.2239 0 38.5055 0.674405 38.1127 1.06719L32.0801 7.09978C31.8504 7.32952 31.5317 7.46292 31.1908 7.46292H0.627679C0.0718512 7.46292 -0.209769 6.78851 0.183016 6.39573L6.22301 0.363141Z" fill="url(#paint1_linear_843_467)"></path>
  <path d="M32.0727 11.5611C31.843 11.3314 31.5243 11.198 31.1834 11.198H0.627679C0.0718512 11.198 -0.209769 11.8724 0.183016 12.2652L6.2156 18.2978C6.44535 18.5275 6.76402 18.6609 7.10493 18.6609H37.6606C38.2165 18.6609 38.4981 17.9865 38.1053 17.5937L32.0727 11.5611Z" fill="url(#paint2_linear_843_467)"></path>
  <path d="M49.8257 26V6.68H53.9657L62.1857 18.23V6.68H67.0457V26H62.8757L54.6557 14.48V26H49.8257Z" fill="white"></path>
  <path d="M70.0992 26V22.46H73.9692V26H70.0992Z" fill="white"></path>
  <path d="M81.4814 26.3C80.5814 26.3 79.7413 26.14 78.9613 25.82C78.2013 25.5 77.5914 25.01 77.1314 24.35C76.6714 23.67 76.4414 22.83 76.4414 21.83C76.4414 20.37 76.9314 19.23 77.9114 18.41C78.9114 17.57 80.4014 17.15 82.3814 17.15H86.3414V16.82C86.3414 16.1 86.1014 15.59 85.6214 15.29C85.1413 14.97 84.2414 14.81 82.9214 14.81C81.3014 14.81 79.7113 15.06 78.1514 15.56V12.44C78.8513 12.16 79.7014 11.93 80.7014 11.75C81.7214 11.57 82.7914 11.48 83.9114 11.48C86.1114 11.48 87.8314 11.93 89.0714 12.83C90.3314 13.73 90.9614 15.16 90.9614 17.12V26H86.7314L86.4914 24.8C85.9714 25.28 85.3014 25.65 84.4814 25.91C83.6814 26.17 82.6814 26.3 81.4814 26.3ZM83.0114 23.33C83.7714 23.33 84.4314 23.2 84.9914 22.94C85.5514 22.68 86.0014 22.35 86.3414 21.95V19.94H82.9214C81.5014 19.94 80.7914 20.51 80.7914 21.65C80.7914 22.17 80.9714 22.58 81.3314 22.88C81.6914 23.18 82.2514 23.33 83.0114 23.33Z" fill="white"></path>
  <path d="M94.4578 26V11.78H99.0478L99.1978 13.1C99.8178 12.72 100.588 12.38 101.508 12.08C102.428 11.76 103.348 11.56 104.268 11.48V15.11C103.748 15.17 103.168 15.27 102.528 15.41C101.908 15.53 101.308 15.68 100.728 15.86C100.168 16.04 99.6878 16.23 99.2878 16.43V26H94.4578Z" fill="white"></path>
  <path d="M112.539 26.3C110.779 26.3 109.479 25.85 108.639 24.95C107.819 24.05 107.409 22.81 107.409 21.23V15.44H105.489V11.78H107.409V8.81L112.239 7.52V11.78H115.689L115.479 15.44H112.239V20.9C112.239 21.58 112.409 22.06 112.749 22.34C113.089 22.6 113.599 22.73 114.279 22.73C114.859 22.73 115.449 22.63 116.049 22.43V25.7C115.109 26.1 113.939 26.3 112.539 26.3Z" fill="white"></path>
  <defs>
    <linearGradient id="paint0_linear_843_467" x1="4.38583e-07" y1="15.75" x2="116.049" y2="15.75" gradientUnits="userSpaceOnUse">
      <stop offset="0.0001" stop-color="#8DFD44"></stop>
      <stop offset="0.0002" stop-color="#34FE41"></stop>
      <stop offset="0.354167" stop-color="#8FFB49" stop-opacity="0.85"></stop>
      <stop offset="1" stop-color="#FFFE4B"></stop>
      <stop offset="1" stop-color="#FFFE4B"></stop>
    </linearGradient>
    <linearGradient id="paint1_linear_843_467" x1="4.38583e-07" y1="15.75" x2="116.049" y2="15.75" gradientUnits="userSpaceOnUse">
      <stop offset="0.0001" stop-color="#8DFD44"></stop>
      <stop offset="0.0002" stop-color="#34FE41"></stop>
      <stop offset="0.354167" stop-color="#8FFB49" stop-opacity="0.85"></stop>
      <stop offset="1" stop-color="#FFFE4B"></stop>
      <stop offset="1" stop-color="#FFFE4B"></stop>
    </linearGradient>
    <linearGradient id="paint2_linear_843_467" x1="4.38583e-07" y1="15.75" x2="116.049" y2="15.75" gradientUnits="userSpaceOnUse">
      <stop offset="0.0001" stop-color="#8DFD44"></stop>
      <stop offset="0.0002" stop-color="#34FE41"></stop>
      <stop offset="0.354167" stop-color="#8FFB49" stop-opacity="0.85"></stop>
      <stop offset="1" stop-color="#FFFE4B"></stop>
      <stop offset="1" stop-color="#FFFE4B"></stop>
    </linearGradient>
  </defs>
</svg>
