<svg xmlns="http://www.w3.org/2000/svg" width="179" height="43" viewBox="0 0 179 43" fill="none"><g id="logoipsum-262 1" clip-path="url(#clip0_718_208)"><path id="Vector" d="M53.9922 30.7534H66.5769V26.9778H58.4651V12.7563H53.9922V30.7534Z" fill="white"></path><path id="Vector_2" d="M74.0329 28.2364C72.2387 28.2364 71.3037 26.6758 71.3037 24.3349C71.3037 21.9941 72.2387 20.4083 74.0329 20.4083C75.8271 20.4083 76.7874 21.9941 76.7874 24.3349C76.7874 26.6758 75.8271 28.2364 74.0329 28.2364ZM74.0582 31.1562C78.2278 31.1562 80.957 28.2112 80.957 24.3349C80.957 20.4586 78.2278 17.5137 74.0582 17.5137C69.9138 17.5137 67.134 20.4586 67.134 24.3349C67.134 28.2112 69.9138 31.1562 74.0582 31.1562Z" fill="white"></path><path id="Vector_3" d="M88.1742 35.209C90.0948 35.209 91.7879 34.7811 92.9251 33.7742C93.9612 32.8429 94.6435 31.4334 94.6435 29.4952V17.8663H90.7013V19.2507H90.6508C89.8926 18.1684 88.7302 17.4888 87.0118 17.4888C83.8024 17.4888 81.5786 20.1569 81.5786 23.9325C81.5786 27.8843 84.2826 30.049 87.1887 30.049C88.7555 30.049 89.741 29.4197 90.4991 28.5639H90.6002V29.8476C90.6002 31.4082 89.8674 32.3143 88.1237 32.3143C86.7591 32.3143 86.0768 31.7354 85.8493 31.0558H81.8566C82.2609 33.7491 84.6111 35.209 88.1742 35.209ZM88.149 27.0033C86.6075 27.0033 85.5966 25.7448 85.5966 23.8066C85.5966 21.8433 86.6075 20.5848 88.149 20.5848C89.8674 20.5848 90.7771 22.0447 90.7771 23.7815C90.7771 25.5937 89.9432 27.0033 88.149 27.0033Z" fill="white"></path><path id="Vector_4" d="M102.75 28.2364C100.955 28.2364 100.02 26.6758 100.02 24.3349C100.02 21.9941 100.955 20.4083 102.75 20.4083C104.544 20.4083 105.504 21.9941 105.504 24.3349C105.504 26.6758 104.544 28.2364 102.75 28.2364ZM102.775 31.1562C106.944 31.1562 109.673 28.2112 109.673 24.3349C109.673 20.4586 106.944 17.5137 102.775 17.5137C98.6306 17.5137 95.8508 20.4586 95.8508 24.3349C95.8508 28.2112 98.6306 31.1562 102.775 31.1562Z" fill="white"></path><path id="Vector_5" d="M110.877 30.7534H114.996V17.866H110.877V30.7534ZM110.877 16.0789H114.996V12.7563H110.877V16.0789Z" fill="white"></path><path id="Vector_6" d="M116.783 35.0076H120.902V29.4197H120.952C121.761 30.502 122.949 31.1565 124.617 31.1565C128.003 31.1565 130.252 28.4884 130.252 24.31C130.252 20.4337 128.154 17.4888 124.718 17.4888C122.949 17.4888 121.685 18.2691 120.801 19.4269H120.725V17.8663H116.783V35.0076ZM123.555 27.985C121.786 27.985 120.775 26.5502 120.775 24.4611C120.775 22.3719 121.685 20.7861 123.479 20.7861C125.248 20.7861 126.082 22.246 126.082 24.4611C126.082 26.6509 125.122 27.985 123.555 27.985Z" fill="white"></path><path id="Vector_7" d="M136.958 31.1565C140.344 31.1565 142.846 29.6966 142.846 26.8775C142.846 23.5801 140.168 23.0012 137.893 22.6236C136.251 22.3215 134.785 22.1957 134.785 21.2896C134.785 20.4841 135.568 20.1065 136.579 20.1065C137.716 20.1065 138.5 20.4589 138.651 21.6168H142.442C142.24 19.0745 140.269 17.4888 136.604 17.4888C133.547 17.4888 131.02 18.8983 131.02 21.6168C131.02 24.6373 133.42 25.2414 135.669 25.6189C137.388 25.921 138.955 26.0468 138.955 27.2047C138.955 28.0353 138.171 28.4884 136.933 28.4884C135.568 28.4884 134.709 27.8591 134.557 26.5754H130.666C130.792 29.4197 133.168 31.1565 136.958 31.1565Z" fill="white"></path><path id="Vector_8" d="M148.442 31.1312C150.236 31.1312 151.373 30.4264 152.308 29.1679H152.384V30.7536H156.326V17.8662H152.207V25.065C152.207 26.6005 151.348 27.6576 149.932 27.6576C148.618 27.6576 147.987 26.8773 147.987 25.4678V17.8662H143.893V26.3236C143.893 29.193 145.46 31.1312 148.442 31.1312Z" fill="white"></path><path id="Vector_9" d="M158.118 30.7537H162.237V23.5297C162.237 21.9943 162.995 20.912 164.284 20.912C165.522 20.912 166.104 21.7175 166.104 23.1018V30.7537H170.223V23.5297C170.223 21.9943 170.956 20.912 172.27 20.912C173.508 20.912 174.089 21.7175 174.089 23.1018V30.7537H178.208V22.3719C178.208 19.4773 176.743 17.4888 173.811 17.4888C172.143 17.4888 170.753 18.1935 169.743 19.7541H169.692C169.035 18.3697 167.746 17.4888 166.053 17.4888C164.183 17.4888 162.945 18.3697 162.136 19.7038H162.06V17.8663H158.118V30.7537Z" fill="white"></path><path id="Vector_10" fill-rule="evenodd" clip-rule="evenodd" d="M21.1655 42.29C32.7961 42.29 42.2243 32.8989 42.2243 21.3144C42.2243 9.72996 32.7961 0.338867 21.1655 0.338867C9.53503 0.338867 0.106689 9.72996 0.106689 21.3144C0.106689 32.8989 9.53503 42.29 21.1655 42.29ZM24.4159 16.5452C26.211 14.7571 26.211 11.8582 24.4159 10.0701C22.6207 8.2821 19.7103 8.2821 17.9151 10.0701C16.1201 11.8582 16.1201 14.7571 17.9151 16.5452L21.1655 19.7827L24.4159 16.5452ZM25.9537 24.552C27.7489 26.3401 30.6593 26.3401 32.4545 24.552C34.2495 22.764 34.2495 19.865 32.4545 18.077C30.6593 16.289 27.7489 16.289 25.9537 18.077L22.7034 21.3145L25.9537 24.552ZM24.4159 32.5588C26.211 30.7708 26.211 27.8718 24.4159 26.0838L21.1655 22.8463L17.9151 26.0838C16.1201 27.8718 16.1201 30.7708 17.9151 32.5588C19.7103 34.3469 22.6207 34.3469 24.4159 32.5588ZM9.87654 24.552C8.08144 22.764 8.08144 19.865 9.87654 18.077C11.6717 16.289 14.5822 16.289 16.3773 18.077L19.6276 21.3145L16.3773 24.552C14.5822 26.3401 11.6717 26.3401 9.87654 24.552Z" fill="#7F57F1"></path></g><defs><clipPath id="clip0_718_208"><rect width="179" height="43" fill="white"></rect></clipPath></defs></svg>