<svg xmlns="http://www.w3.org/2000/svg" width="161" height="40" viewBox="0 0 161 40" fill="none"><g id="logoipsum-260 (1) 1" clip-path="url(#clip0_718_219)"><path id="Vector" d="M0.924805 29.6649L0.924808 9.88818L10.8099 15.3817V24.2263L18.7181 28.676L26.6261 24.2263V15.3817L36.5113 9.88818V29.6649L18.7181 39.5532L0.924805 29.6649Z" fill="white"></path><path id="Vector_2" fill-rule="evenodd" clip-rule="evenodd" d="M5.86737 12.6352L0.924805 9.88836L18.7181 0L36.5113 9.88836L31.5687 12.6352V27.1929L18.7181 34.6093L5.86736 27.1929L5.86737 12.6352ZM31.0333 12.9327L26.6261 15.3819V15.3269L18.7181 10.8772L10.8099 15.3269V15.3819L6.40281 12.9327V26.8887L18.7181 33.996L31.0333 26.8887V12.9327Z" fill="url(#paint0_linear_718_219)"></path><path id="Vector_3" d="M45.9851 28.1022V11.4897H49.1167V25.2543H56.7086V28.1022H45.9851Z" fill="white"></path><path id="Vector_4" d="M63.4696 28.4341C62.2992 28.4341 61.2475 28.1969 60.3143 27.7221C59.3811 27.2475 58.6457 26.5593 58.108 25.6575C57.5701 24.7557 57.3013 23.6719 57.3013 22.4062V22.0264C57.3013 20.7607 57.5701 19.677 58.108 18.7752C58.6457 17.8734 59.3811 17.1852 60.3143 16.7105C61.2475 16.2358 62.2992 15.9985 63.4696 15.9985C64.64 15.9985 65.6918 16.2358 66.625 16.7105C67.5581 17.1852 68.2936 17.8734 68.8313 18.7752C69.369 19.677 69.638 20.7607 69.638 22.0264V22.4062C69.638 23.6719 69.369 24.7557 68.8313 25.6575C68.2936 26.5593 67.5581 27.2475 66.625 27.7221C65.6918 28.1969 64.64 28.4341 63.4696 28.4341ZM63.4696 25.7761C64.387 25.7761 65.1462 25.4835 65.7471 24.898C66.3482 24.2968 66.6486 23.4424 66.6486 22.335V22.0977C66.6486 20.9902 66.3482 20.1437 65.7471 19.5583C65.162 18.9572 64.4027 18.6565 63.4696 18.6565C62.5523 18.6565 61.7931 18.9572 61.1921 19.5583C60.591 20.1437 60.2906 20.9902 60.2906 22.0977V22.335C60.2906 23.4424 60.591 24.2968 61.1921 24.898C61.7931 25.4835 62.5523 25.7761 63.4696 25.7761Z" fill="white"></path><path id="Vector_5" d="M70.7603 22.2638V21.8841C70.7603 20.65 71.0053 19.5979 71.4957 18.7277C71.986 17.8417 72.6345 17.1693 73.4411 16.7105C74.2635 16.2358 75.1571 15.9985 76.1219 15.9985C77.1974 15.9985 78.012 16.1884 78.5655 16.5681C79.1191 16.9478 79.5224 17.3434 79.7754 17.7547H80.2025V16.3307H83.1443V30.1903C83.1443 30.9972 82.907 31.6379 82.4325 32.1126C81.9581 32.6031 81.3254 32.8483 80.5346 32.8483H72.6582V30.2378H79.4908C79.9336 30.2378 80.1551 30.0004 80.1551 29.5258V26.4643H79.728C79.5698 26.7175 79.3484 26.9785 79.0637 27.2475C78.779 27.5006 78.3994 27.7142 77.925 27.8883C77.4505 28.0623 76.8494 28.1494 76.1219 28.1494C75.1571 28.1494 74.2635 27.9199 73.4411 27.4611C72.6345 26.9864 71.986 26.314 71.4957 25.4439C71.0053 24.5579 70.7603 23.4979 70.7603 22.2638ZM76.976 25.5389C77.8933 25.5389 78.6604 25.2461 79.2773 24.6607C79.8941 24.0754 80.2025 23.2526 80.2025 22.1926V21.9553C80.2025 20.8794 79.8941 20.0567 79.2773 19.4872C78.6762 18.9018 77.9092 18.6091 76.976 18.6091C76.0586 18.6091 75.2915 18.9018 74.6748 19.4872C74.0579 20.0567 73.7495 20.8794 73.7495 21.9553V22.1926C73.7495 23.2526 74.0579 24.0754 74.6748 24.6607C75.2915 25.2461 76.0586 25.5389 76.976 25.5389Z" fill="white"></path><path id="Vector_6" d="M90.9898 28.4341C89.8194 28.4341 88.7676 28.1969 87.8344 27.7221C86.9013 27.2475 86.1658 26.5593 85.6281 25.6575C85.0904 24.7557 84.8215 23.6719 84.8215 22.4062V22.0264C84.8215 20.7607 85.0904 19.677 85.6281 18.7752C86.1658 17.8734 86.9013 17.1852 87.8344 16.7105C88.7676 16.2358 89.8194 15.9985 90.9898 15.9985C92.1602 15.9985 93.2119 16.2358 94.1451 16.7105C95.0783 17.1852 95.8137 17.8734 96.3514 18.7752C96.8893 19.677 97.1581 20.7607 97.1581 22.0264V22.4062C97.1581 23.6719 96.8893 24.7557 96.3514 25.6575C95.8137 26.5593 95.0783 27.2475 94.1451 27.7221C93.2119 28.1969 92.1602 28.4341 90.9898 28.4341ZM90.9898 25.7761C91.9071 25.7761 92.6663 25.4835 93.2673 24.898C93.8684 24.2968 94.1689 23.4424 94.1689 22.335V22.0977C94.1689 20.9902 93.8684 20.1437 93.2673 19.5583C92.6821 18.9572 91.923 18.6565 90.9898 18.6565C90.0724 18.6565 89.3133 18.9572 88.7123 19.5583C88.1113 20.1437 87.8108 20.9902 87.8108 22.0977V22.335C87.8108 23.4424 88.1113 24.2968 88.7123 24.898C89.3133 25.4835 90.0724 25.7761 90.9898 25.7761Z" fill="white"></path><path id="Vector_7" d="M98.8499 28.102V16.3308H101.839V28.102H98.8499ZM100.344 14.9544C99.8067 14.9544 99.348 14.7804 98.9685 14.4323C98.6047 14.0842 98.4229 13.6253 98.4229 13.0559C98.4229 12.4863 98.6047 12.0274 98.9685 11.6793C99.348 11.3313 99.8067 11.1572 100.344 11.1572C100.898 11.1572 101.357 11.3313 101.721 11.6793C102.084 12.0274 102.266 12.4863 102.266 13.0559C102.266 13.6253 102.084 14.0842 101.721 14.4323C101.357 14.7804 100.898 14.9544 100.344 14.9544Z" fill="white"></path><path id="Vector_8" d="M104.084 32.8483V16.3307H107.026V17.7547H107.453C107.722 17.2959 108.14 16.8924 108.711 16.5443C109.28 16.1804 110.094 15.9985 111.154 15.9985C112.103 15.9985 112.981 16.2358 113.787 16.7105C114.594 17.1693 115.242 17.8496 115.733 18.7515C116.223 19.6533 116.468 20.745 116.468 22.0264V22.4062C116.468 23.6877 116.223 24.7794 115.733 25.6812C115.242 26.5831 114.594 27.2713 113.787 27.7459C112.981 28.2047 112.103 28.4341 111.154 28.4341C110.442 28.4341 109.841 28.3471 109.35 28.1731C108.876 28.0149 108.489 27.8092 108.189 27.556C107.904 27.2871 107.674 27.0181 107.501 26.7492H107.073V32.8483H104.084ZM110.252 25.8236C111.186 25.8236 111.953 25.5309 112.554 24.9455C113.17 24.3443 113.479 23.4741 113.479 22.335V22.0977C113.479 20.9585 113.17 20.0962 112.554 19.5109C111.937 18.9097 111.17 18.6091 110.252 18.6091C109.335 18.6091 108.568 18.9097 107.951 19.5109C107.334 20.0962 107.026 20.9585 107.026 22.0977V22.335C107.026 23.4741 107.334 24.3443 107.951 24.9455C108.568 25.5309 109.335 25.8236 110.252 25.8236Z" fill="white"></path><path id="Vector_9" d="M123.032 28.4341C121.498 28.4341 120.241 28.1019 119.26 27.4374C118.28 26.7729 117.687 25.8236 117.48 24.5895L120.233 23.8776C120.344 24.4313 120.526 24.8664 120.778 25.1829C121.048 25.4993 121.372 25.7286 121.752 25.8711C122.146 25.9976 122.574 26.061 123.032 26.061C123.728 26.061 124.242 25.9422 124.575 25.705C124.906 25.4518 125.073 25.1433 125.073 24.7794C125.073 24.4155 124.915 24.1386 124.598 23.9487C124.282 23.7431 123.776 23.577 123.08 23.4504L122.416 23.3317C121.593 23.1735 120.841 22.9599 120.162 22.691C119.482 22.4062 118.936 22.0185 118.524 21.5281C118.114 21.0376 117.908 20.4047 117.908 19.6295C117.908 18.4587 118.335 17.5648 119.189 16.9478C120.043 16.315 121.167 15.9985 122.558 15.9985C123.871 15.9985 124.962 16.2913 125.831 16.8766C126.702 17.462 127.271 18.2294 127.54 19.1786L124.764 20.033C124.638 19.4318 124.377 19.0045 123.982 18.7515C123.602 18.4983 123.127 18.3717 122.558 18.3717C121.988 18.3717 121.554 18.4745 121.253 18.6802C120.953 18.8701 120.803 19.1391 120.803 19.4872C120.803 19.8669 120.96 20.1516 121.277 20.3415C121.593 20.5155 122.02 20.65 122.558 20.745L123.222 20.8636C124.108 21.0218 124.906 21.2354 125.619 21.5043C126.346 21.7575 126.915 22.1293 127.327 22.6198C127.754 23.0944 127.968 23.7431 127.968 24.5658C127.968 25.7999 127.516 26.7571 126.614 27.4374C125.729 28.1019 124.535 28.4341 123.032 28.4341Z" fill="white"></path><path id="Vector_10" d="M134.003 28.292C133.086 28.292 132.279 28.0863 131.583 27.6751C130.904 27.2478 130.373 26.6624 129.993 25.9188C129.615 25.1753 129.424 24.3208 129.424 23.3558V16.3311H132.414V23.1184C132.414 24.0044 132.627 24.6689 133.054 25.1119C133.496 25.5549 134.121 25.7764 134.929 25.7764C135.845 25.7764 136.558 25.4758 137.064 24.8746C137.57 24.2576 137.822 23.4033 137.822 22.3116V16.3311H140.812V28.1022H137.87V26.5596H137.444C137.253 26.9552 136.897 27.3427 136.375 27.7224C135.854 28.1022 135.062 28.292 134.003 28.292Z" fill="white"></path><path id="Vector_11" d="M143.071 28.1021V16.3309H146.012V17.6125H146.439C146.645 17.2169 146.986 16.8768 147.459 16.592C147.934 16.2914 148.559 16.1411 149.334 16.1411C150.172 16.1411 150.844 16.3072 151.35 16.6394C151.857 16.9559 152.244 17.3751 152.513 17.8972H152.939C153.209 17.391 153.589 16.9717 154.079 16.6394C154.569 16.3072 155.265 16.1411 156.167 16.1411C156.894 16.1411 157.551 16.2993 158.136 16.6157C158.736 16.9163 159.211 17.383 159.559 18.016C159.922 18.6329 160.104 19.4161 160.104 20.3654V28.1021H157.115V20.579C157.115 19.9303 156.95 19.4477 156.617 19.1313C156.285 18.7991 155.818 18.6329 155.218 18.6329C154.538 18.6329 154.007 18.8545 153.628 19.2974C153.265 19.7246 153.083 20.3416 153.083 21.1486V28.1021H150.093V20.579C150.093 19.9303 149.927 19.4477 149.595 19.1313C149.263 18.7991 148.797 18.6329 148.195 18.6329C147.515 18.6329 146.986 18.8545 146.606 19.2974C146.242 19.7246 146.06 20.3416 146.06 21.1486V28.1021H143.071Z" fill="white"></path></g><defs><linearGradient id="paint0_linear_718_219" x1="5.86736" y1="7.69093" x2="32.5572" y2="7.69094" gradientUnits="userSpaceOnUse"><stop stop-color="#64C2DB"></stop><stop offset="0.307292" stop-color="#7476ED"></stop><stop offset="0.604167" stop-color="#C994DF"></stop><stop offset="1" stop-color="#E56F8C"></stop></linearGradient><clipPath id="clip0_718_219"><rect width="161" height="40" fill="white"></rect></clipPath></defs></svg>