<svg xmlns="http://www.w3.org/2000/svg" width="131" height="35" viewBox="0 0 131 35" fill="none"><g id="logoipsum-236 1"><path id="Vector" d="M10.7342 31.7474L7.64673 26.2705L12.1778 18.2549L15.057 23.3628L32.054 23.3535L27.231 31.823L10.7342 31.7474Z" fill="#FFAD64"></path><path id="Vector_2" d="M35.0892 17.9155L32.0017 23.3923L22.9584 23.3814L25.8379 18.2736L17.3315 3.20264L26.9047 3.24566L35.0892 17.9155Z" fill="#ADD4D3"></path><path id="Vector_3" d="M11.2101 3.17334H17.385L21.8974 11.2001L16.1384 11.1998L7.64795 26.2801L2.89771 17.7676L11.2101 3.17334Z" fill="#FB8351"></path><path id="Vector_4" fill-rule="evenodd" clip-rule="evenodd" d="M18.1379 1.90527L18.1195 1.87256H10.4806L1.43115 17.761L7.64315 28.893L7.65078 28.8795L9.99917 33.0453L27.9589 33.1276L34.266 22.0517H34.224L36.5539 17.9187L27.6436 1.94798L18.1379 1.90527ZM24.0469 12.5009H24.0946L19.6042 4.51366L26.1657 4.54313L33.6244 17.912L31.2898 22.0535L25.1717 22.0568L27.3048 18.273L24.0469 12.5009ZM16.5823 4.47428L19.6441 9.89907L15.4048 9.89897L8.1471 22.7896L7.65203 23.6654L4.36457 17.7743L11.9398 4.47428H16.5823ZM13.6385 18.2444L16.8723 12.5007L21.1127 12.5009L24.371 18.2738L22.2374 22.0585L15.7904 22.0621L13.6385 18.2444ZM9.11651 26.2761L10.3468 24.091L12.1763 20.8544L14.3241 24.6646L20.7701 24.661L20.7597 24.6795L29.8226 24.6905L26.5035 30.5192L11.4696 30.4503L9.11651 26.2761Z" fill="white"></path><path id="Vector_5" d="M82.8204 11.3931C83.6903 11.3931 84.397 10.6692 84.397 9.7598C84.397 8.85032 83.6903 8.14502 82.8204 8.14502C81.9324 8.14502 81.2256 8.85032 81.2256 9.7598C81.2256 10.6692 81.9324 11.3931 82.8204 11.3931ZM81.4068 22.1211H84.2158V12.8409H81.4068V22.1211Z" fill="#FB8351"></path><path id="Vector_6" d="M85.8508 26.5758H88.6055V21.1932C89.1311 21.8986 90.3271 22.3811 91.5776 22.3811C94.2778 22.3811 95.909 20.2652 95.8368 17.3326C95.7637 14.3443 94.0785 12.5439 91.5595 12.5439C90.2727 12.5439 89.0585 13.1193 88.5511 13.9731L88.4062 12.841H85.8508V26.5758ZM88.6598 17.4811C88.6598 16.0891 89.566 15.1611 90.8708 15.1611C92.1938 15.1611 93.0274 16.1076 93.0274 17.4811C93.0274 18.8545 92.1938 19.8012 90.8708 19.8012C89.566 19.8012 88.6598 18.8731 88.6598 17.4811Z" fill="#FB8351"></path><path id="Vector_7" d="M96.134 19.1887C96.2062 21.0633 97.6567 22.3625 99.9397 22.3625C102.132 22.3625 103.655 21.1747 103.655 19.2629C103.655 17.8894 102.858 16.98 101.371 16.6087L99.7584 16.2004C99.1784 16.0519 98.8157 15.9035 98.8157 15.4208C98.8157 14.9383 99.1964 14.6228 99.7584 14.6228C100.392 14.6228 100.809 15.0497 100.791 15.6807H103.311C103.238 13.7504 101.806 12.5439 99.8125 12.5439C97.801 12.5439 96.2973 13.7689 96.2973 15.625C96.2973 16.8686 96.9675 17.8894 98.7616 18.372L100.356 18.7989C100.827 18.9288 101.027 19.1516 101.027 19.467C101.027 19.9311 100.61 20.2281 99.9036 20.2281C99.0882 20.2281 98.6534 19.8383 98.6534 19.1887H96.134Z" fill="#FB8351"></path><path id="Vector_8" d="M107.927 22.3624C109.032 22.3624 110.138 21.8427 110.7 21.0818L110.881 22.1211H113.509V12.8408H110.718V17.6665C110.718 19.0586 110.319 19.8196 109.032 19.8196C108.035 19.8196 107.383 19.3556 107.383 17.6294V12.8408H104.592V18.6688C104.592 20.8776 105.788 22.3624 107.927 22.3624Z" fill="#FB8351"></path><path id="Vector_9" d="M117.934 22.1212V17.0542C117.934 15.4951 118.75 15.0497 119.547 15.0497C120.435 15.0497 121.015 15.6065 121.015 16.7573V22.1212H123.769V17.0542C123.769 15.4766 124.567 15.0311 125.364 15.0311C126.253 15.0311 126.851 15.5879 126.851 16.7573V22.1212H129.568V16.0519C129.568 13.936 128.482 12.5254 126.143 12.5254C124.839 12.5254 123.769 13.175 123.298 14.1773C122.755 13.175 121.813 12.5254 120.308 12.5254C119.312 12.5254 118.387 12.9894 117.844 13.7318L117.735 12.841H115.125V22.1212H117.934Z" fill="#FB8351"></path><path id="Vector_10" d="M44.5439 8.3877H41.5718V22.1226H49.7994V19.4313H44.5439V8.3877Z" fill="white"></path><path id="Vector_11" d="M50.0833 17.4641C50.0833 20.3966 52.0043 22.3455 54.9039 22.3455C57.7854 22.3455 59.7063 20.3966 59.7063 17.4641C59.7063 14.5315 57.7854 12.564 54.9039 12.564C52.0043 12.564 50.0833 14.5315 50.0833 17.4641ZM52.8923 17.4455C52.8923 16.0534 53.6896 15.1254 54.9039 15.1254C56.1 15.1254 56.8973 16.0534 56.8973 17.4455C56.8973 18.8561 56.1 19.7841 54.9039 19.7841C53.6896 19.7841 52.8923 18.8561 52.8923 17.4455Z" fill="white"></path><path id="Vector_12" d="M60.1553 17.3154C60.1553 20.1182 61.9314 22.0113 64.4504 22.0113C65.6646 22.0113 66.7157 21.5659 67.2413 20.842V22.1227C67.2413 23.4034 66.462 24.2571 65.0847 24.2571C63.8524 24.2571 63.0006 23.6632 62.9462 22.6052H60.1191C60.3728 25.148 62.2938 26.8557 64.9216 26.8557C68.0205 26.8557 69.9777 24.7954 69.9777 21.5288V12.8423H67.4587L67.3138 13.789C66.8063 13.0279 65.7371 12.5269 64.5048 12.5269C61.9676 12.5269 60.1553 14.4757 60.1553 17.3154ZM62.9824 17.2413C62.9824 15.9048 63.8524 15.014 64.9578 15.014C66.2445 15.014 67.1869 15.8863 67.1869 17.2413C67.1869 18.5961 66.2627 19.5241 64.9759 19.5241C63.8705 19.5241 62.9824 18.5961 62.9824 17.2413Z" fill="white"></path><path id="Vector_13" d="M70.7913 17.4641C70.7913 20.3966 72.7122 22.3455 75.6119 22.3455C78.4933 22.3455 80.4143 20.3966 80.4143 17.4641C80.4143 14.5315 78.4933 12.564 75.6119 12.564C72.7122 12.564 70.7913 14.5315 70.7913 17.4641ZM73.6003 17.4455C73.6003 16.0534 74.3977 15.1254 75.6119 15.1254C76.808 15.1254 77.6053 16.0534 77.6053 17.4455C77.6053 18.8561 76.808 19.7841 75.6119 19.7841C74.3977 19.7841 73.6003 18.8561 73.6003 17.4455Z" fill="white"></path></g></svg>