<svg xmlns="http://www.w3.org/2000/svg" width="169" height="41" viewBox="0 0 169 41" fill="none"><g id="logoipsum-265 (1) 1" clip-path="url(#clip0_718_192)"><path id="Vector" d="M49.5708 28.9525H61.5939V25.3525H53.8441V11.7925H49.5708V28.9525Z" fill="white"></path><path id="Vector_2" d="M68.7172 26.5526C67.0031 26.5526 66.1098 25.0646 66.1098 22.8326C66.1098 20.6006 67.0031 19.0886 68.7172 19.0886C70.4314 19.0886 71.3488 20.6006 71.3488 22.8326C71.3488 25.0646 70.4314 26.5526 68.7172 26.5526ZM68.7414 29.3366C72.7249 29.3366 75.3324 26.5286 75.3324 22.8326C75.3324 19.1366 72.7249 16.3286 68.7414 16.3286C64.7819 16.3286 62.1262 19.1366 62.1262 22.8326C62.1262 26.5286 64.7819 29.3366 68.7414 29.3366Z" fill="white"></path><path id="Vector_3" d="M82.2276 33.2002C84.0624 33.2002 85.68 32.7922 86.7664 31.8322C87.7563 30.9442 88.4081 29.6002 88.4081 27.7522V16.6642H84.6418V17.9842H84.5936C83.8693 16.9522 82.7587 16.3042 81.117 16.3042C78.0508 16.3042 75.9263 18.8482 75.9263 22.4482C75.9263 26.2162 78.5096 28.2802 81.286 28.2802C82.7828 28.2802 83.7244 27.6802 84.4487 26.8642H84.5453V28.0882C84.5453 29.5762 83.8451 30.4402 82.1793 30.4402C80.8756 30.4402 80.2237 29.8882 80.0064 29.2402H76.1918C76.5781 31.8082 78.8234 33.2002 82.2276 33.2002ZM82.2034 25.3762C80.7307 25.3762 79.765 24.1762 79.765 22.3282C79.765 20.4562 80.7307 19.2562 82.2034 19.2562C83.8451 19.2562 84.7143 20.6482 84.7143 22.3042C84.7143 24.0322 83.9176 25.3762 82.2034 25.3762Z" fill="white"></path><path id="Vector_4" d="M96.1525 26.5526C94.4384 26.5526 93.5451 25.0646 93.5451 22.8326C93.5451 20.6006 94.4384 19.0886 96.1525 19.0886C97.8667 19.0886 98.7841 20.6006 98.7841 22.8326C98.7841 25.0646 97.8667 26.5526 96.1525 26.5526ZM96.1767 29.3366C100.16 29.3366 102.767 26.5286 102.767 22.8326C102.767 19.1366 100.16 16.3286 96.1767 16.3286C92.2172 16.3286 89.5615 19.1366 89.5615 22.8326C89.5615 26.5286 92.2172 29.3366 96.1767 29.3366Z" fill="white"></path><path id="Vector_5" d="M103.917 28.9525H107.852V16.6645H103.917V28.9525ZM103.917 14.9605H107.852V11.7925H103.917V14.9605Z" fill="white"></path><path id="Vector_6" d="M109.559 33.0082H113.495V27.6802H113.543C114.315 28.7122 115.45 29.3362 117.044 29.3362C120.279 29.3362 122.427 26.7922 122.427 22.8082C122.427 19.1122 120.424 16.3042 117.14 16.3042C115.45 16.3042 114.243 17.0482 113.398 18.1522H113.326V16.6642H109.559V33.0082ZM116.03 26.3122C114.34 26.3122 113.374 24.9442 113.374 22.9522C113.374 20.9602 114.243 19.4482 115.957 19.4482C117.647 19.4482 118.444 20.8402 118.444 22.9522C118.444 25.0402 117.526 26.3122 116.03 26.3122Z" fill="white"></path><path id="Vector_7" d="M128.834 29.3362C132.069 29.3362 134.46 27.9442 134.46 25.2562C134.46 22.1122 131.9 21.5602 129.728 21.2002C128.158 20.9122 126.758 20.7922 126.758 19.9282C126.758 19.1602 127.506 18.8002 128.472 18.8002C129.559 18.8002 130.307 19.1362 130.452 20.2402H134.073C133.88 17.8162 131.997 16.3042 128.496 16.3042C125.575 16.3042 123.161 17.6482 123.161 20.2402C123.161 23.1202 125.454 23.6962 127.603 24.0562C129.245 24.3442 130.742 24.4642 130.742 25.5682C130.742 26.3602 129.993 26.7922 128.81 26.7922C127.506 26.7922 126.686 26.1922 126.541 24.9682H122.823C122.943 27.6802 125.213 29.3362 128.834 29.3362Z" fill="white"></path><path id="Vector_8" d="M139.805 29.3126C141.519 29.3126 142.606 28.6405 143.499 27.4405H143.571V28.9526H147.338V16.6646H143.402V23.5286C143.402 24.9926 142.582 26.0006 141.23 26.0006C139.974 26.0006 139.371 25.2565 139.371 23.9125V16.6646H135.459V24.7285C135.459 27.4646 136.956 29.3126 139.805 29.3126Z" fill="white"></path><path id="Vector_9" d="M149.05 28.9522H152.985V22.0642C152.985 20.6002 153.71 19.5682 154.941 19.5682C156.124 19.5682 156.679 20.3362 156.679 21.6562V28.9522H160.614V22.0642C160.614 20.6002 161.315 19.5682 162.57 19.5682C163.753 19.5682 164.308 20.3362 164.308 21.6562V28.9522H168.244V20.9602C168.244 18.2002 166.843 16.3042 164.043 16.3042C162.449 16.3042 161.121 16.9762 160.156 18.4642H160.107C159.48 17.1442 158.248 16.3042 156.631 16.3042C154.844 16.3042 153.661 17.1442 152.889 18.4162H152.816V16.6642H149.05V28.9522Z" fill="white"></path><path id="Vector_10" d="M25.5612 1.97671L21.6048 0.922852L18.2707 13.2924L15.2606 2.12509L11.3041 3.17895L14.5563 15.2444L6.45572 7.19183L3.55939 10.071L12.4447 18.9038L1.37947 15.9564L0.319336 19.8894L12.4095 23.1098C12.2711 22.5163 12.1978 21.8979 12.1978 21.2625C12.1978 16.7649 15.8655 13.1189 20.3899 13.1189C24.9143 13.1189 28.582 16.7649 28.582 21.2625C28.582 21.8938 28.5097 22.5084 28.3729 23.0984L39.3607 26.0251L40.4207 22.0921L28.2825 18.8589L39.3485 15.9113L38.2883 11.9783L26.1506 15.2113L34.2511 7.15877L31.3548 4.27958L22.5927 12.9898L25.5612 1.97671Z" fill="#F97316"></path><path id="Vector_11" d="M28.3622 23.1445C28.023 24.5701 27.3068 25.8508 26.3242 26.8769L34.2843 34.79L37.1807 31.9108L28.3622 23.1445Z" fill="#F97316"></path><path id="Vector_12" d="M26.2436 26.9595C25.2491 27.9692 23.9923 28.7227 22.583 29.111L25.4795 39.857L29.436 38.8031L26.2436 26.9595Z" fill="#F97316"></path><path id="Vector_13" d="M22.4354 29.1503C21.7815 29.3174 21.0961 29.4062 20.3898 29.4062C19.6332 29.4062 18.9004 29.3042 18.2048 29.1133L15.3057 39.8691L19.2621 40.9229L22.4354 29.1503Z" fill="#F97316"></path><path id="Vector_14" d="M18.0651 29.0739C16.6773 28.6663 15.4429 27.9032 14.4687 26.8906L6.48901 34.8231L9.38534 37.7023L18.0651 29.0739Z" fill="#F97316"></path><path id="Vector_15" d="M14.402 26.8205C13.4446 25.8015 12.7472 24.5379 12.4152 23.1343L1.3916 26.0706L2.45172 30.0036L14.402 26.8205Z" fill="#F97316"></path></g><defs><clipPath id="clip0_718_192"><rect width="169" height="41" fill="white"></rect></clipPath></defs></svg>