<svg xmlns="http://www.w3.org/2000/svg" width="155" height="28" viewBox="0 0 155 28" fill="none"><g id="logoipsum-259 1" clip-path="url(#clip0_718_179)"><path id="Vector" d="M23.3028 21.461H31.3499L11.4157 0.921875H3.36865L23.3028 21.461Z" fill="#7476ED"></path><path id="Vector_2" d="M15.55 0.921876L34.7662 20.7212V0.921875H29.566V7.17289L23.499 0.921875L15.55 0.921876Z" fill="#E56F8C"></path><path id="Vector_3" d="M0 1.60938V21.4608H5.20022V15.2098L11.2671 21.4608H19.2668L0 1.60938Z" fill="#64C2DB"></path><path id="Vector_4" d="M47.315 18.3725H51.9744V21.2015H43.7581V6.15625H47.315V18.3725Z" fill="white"></path><path id="Vector_5" d="M58.3305 21.3733C57.1934 21.3733 56.1671 21.1233 55.2519 20.6231C54.3505 20.1231 53.6364 19.4087 53.1094 18.48C52.5964 17.5512 52.3398 16.4654 52.3398 15.2223C52.3398 13.9936 52.6032 12.9147 53.1302 11.9861C53.6572 11.043 54.3783 10.3215 55.2935 9.82141C56.2088 9.32133 57.2349 9.07129 58.3721 9.07129C59.5092 9.07129 60.5353 9.32133 61.4506 9.82141C62.3658 10.3215 63.0869 11.043 63.6139 11.9861C64.1409 12.9147 64.4043 13.9936 64.4043 15.2223C64.4043 16.451 64.1339 17.5369 63.593 18.48C63.0661 19.4087 62.338 20.1231 61.409 20.6231C60.4937 21.1233 59.4675 21.3733 58.3305 21.3733ZM58.3305 18.2014C59.01 18.2014 59.5855 17.9442 60.0569 17.4298C60.5423 16.9154 60.7849 16.1796 60.7849 15.2223C60.7849 14.265 60.5492 13.5292 60.0778 13.0148C59.6201 12.5004 59.0515 12.2433 58.3721 12.2433C57.6787 12.2433 57.1032 12.5004 56.6456 13.0148C56.188 13.5149 55.9592 14.2508 55.9592 15.2223C55.9592 16.1796 56.181 16.9154 56.6248 17.4298C57.0824 17.9442 57.651 18.2014 58.3305 18.2014Z" fill="white"></path><path id="Vector_6" d="M70.077 9.07129C70.8952 9.07129 71.6094 9.24274 72.2195 9.58566C72.8435 9.92858 73.3219 10.3787 73.6548 10.9359V9.24274H77.2117V21.1804C77.2117 22.2806 76.9967 23.2736 76.5668 24.1594C76.1509 25.0596 75.506 25.774 74.6324 26.3027C73.7726 26.8314 72.6979 27.0957 71.4083 27.0957C69.6887 27.0957 68.2951 26.6742 67.2273 25.8311C66.1595 25.0024 65.5494 23.8737 65.3968 22.4449H68.9122C69.0231 22.9021 69.2866 23.2593 69.7026 23.5165C70.1186 23.788 70.6317 23.9237 71.2419 23.9237C71.9768 23.9237 72.5592 23.7023 72.9892 23.2593C73.4328 22.8307 73.6548 22.1377 73.6548 21.1804V19.4873C73.308 20.0445 72.8296 20.5017 72.2195 20.859C71.6094 21.2018 70.8952 21.3733 70.077 21.3733C69.1202 21.3733 68.2534 21.1233 67.4769 20.6231C66.7003 20.1088 66.0832 19.3873 65.6257 18.4585C65.1819 17.5156 64.96 16.4297 64.96 15.2009C64.96 13.9721 65.1819 12.8934 65.6257 11.9646C66.0832 11.0359 66.7003 10.3215 67.4769 9.82141C68.2534 9.32133 69.1202 9.07129 70.077 9.07129ZM73.6548 15.2223C73.6548 14.3079 73.4051 13.5863 72.9059 13.0576C72.4206 12.529 71.8242 12.2646 71.1171 12.2646C70.4098 12.2646 69.8066 12.529 69.3074 13.0576C68.822 13.572 68.5793 14.2864 68.5793 15.2009C68.5793 16.1154 68.822 16.844 69.3074 17.387C69.8066 17.9157 70.4098 18.1799 71.1171 18.1799C71.8242 18.1799 72.4206 17.9157 72.9059 17.387C73.4051 16.8583 73.6548 16.1367 73.6548 15.2223Z" fill="white"></path><path id="Vector_7" d="M84.4445 21.3733C83.3074 21.3733 82.2812 21.1233 81.3659 20.6231C80.4646 20.1231 79.7504 19.4087 79.2235 18.48C78.7104 17.5512 78.4539 16.4654 78.4539 15.2223C78.4539 13.9936 78.7174 12.9147 79.2443 11.9861C79.7713 11.043 80.4923 10.3215 81.4076 9.82141C82.3228 9.32133 83.349 9.07129 84.4861 9.07129C85.6232 9.07129 86.6494 9.32133 87.5646 9.82141C88.4798 10.3215 89.201 11.043 89.7279 11.9861C90.2549 12.9147 90.5184 13.9936 90.5184 15.2223C90.5184 16.451 90.2479 17.5369 89.7072 18.48C89.1802 19.4087 88.4522 20.1231 87.5231 20.6231C86.6078 21.1233 85.5816 21.3733 84.4445 21.3733ZM84.4445 18.2014C85.124 18.2014 85.6995 17.9442 86.1709 17.4298C86.6564 16.9154 86.899 16.1796 86.899 15.2223C86.899 14.265 86.6633 13.5292 86.1918 13.0148C85.7341 12.5004 85.1657 12.2433 84.4861 12.2433C83.7928 12.2433 83.2173 12.5004 82.7596 13.0148C82.302 13.5149 82.0732 14.2508 82.0732 15.2223C82.0732 16.1796 82.2951 16.9154 82.7388 17.4298C83.1965 17.9442 83.765 18.2014 84.4445 18.2014Z" fill="white"></path><path id="Vector_8" d="M93.5699 7.99961C92.9459 7.99961 92.4328 7.81386 92.0306 7.44237C91.6424 7.05659 91.4482 6.58509 91.4482 6.02785C91.4482 5.45633 91.6424 4.98482 92.0306 4.61333C92.4328 4.22756 92.9459 4.03467 93.5699 4.03467C94.1801 4.03467 94.6793 4.22756 95.0676 4.61333C95.4697 4.98482 95.6708 5.45633 95.6708 6.02785C95.6708 6.58509 95.4697 7.05659 95.0676 7.44237C94.6793 7.81386 94.1801 7.99961 93.5699 7.99961ZM95.3379 9.24267V21.2017H91.781V9.24267H95.3379Z" fill="white"></path><path id="Vector_9" d="M100.849 10.9359C101.196 10.3787 101.674 9.92858 102.284 9.58566C102.894 9.24274 103.609 9.07129 104.427 9.07129C105.384 9.07129 106.251 9.32133 107.027 9.82141C107.804 10.3215 108.414 11.0359 108.857 11.9646C109.315 12.8934 109.544 13.9721 109.544 15.2009C109.544 16.4297 109.315 17.5156 108.857 18.4585C108.414 19.3873 107.804 20.1088 107.027 20.6231C106.251 21.1233 105.384 21.3733 104.427 21.3733C103.623 21.3733 102.908 21.2018 102.284 20.859C101.674 20.516 101.196 20.0731 100.849 19.5301V26.9028H97.292V9.24274H100.849V10.9359ZM105.924 15.2009C105.924 14.2864 105.675 13.572 105.176 13.0576C104.691 12.529 104.087 12.2646 103.366 12.2646C102.658 12.2646 102.056 12.529 101.556 13.0576C101.071 13.5863 100.829 14.3079 100.829 15.2223C100.829 16.1367 101.071 16.8583 101.556 17.387C102.056 17.9157 102.658 18.1799 103.366 18.1799C104.074 18.1799 104.676 17.9157 105.176 17.387C105.675 16.844 105.924 16.1154 105.924 15.2009Z" fill="white"></path><path id="Vector_10" d="M115.507 21.3733C114.495 21.3733 113.594 21.1948 112.804 20.8375C112.013 20.4803 111.389 19.9945 110.932 19.3802C110.474 18.7515 110.217 18.0513 110.162 17.2797H113.677C113.719 17.6941 113.906 18.0299 114.239 18.2871C114.571 18.5443 114.981 18.6729 115.466 18.6729C115.91 18.6729 116.249 18.5871 116.485 18.4157C116.735 18.23 116.86 17.9942 116.86 17.7084C116.86 17.3655 116.686 17.1155 116.339 16.9583C115.992 16.7868 115.431 16.6011 114.655 16.4011C113.822 16.201 113.129 15.9938 112.574 15.7796C112.02 15.5509 111.542 15.2009 111.139 14.7294C110.737 14.2436 110.536 13.5935 110.536 12.779C110.536 12.0932 110.716 11.4717 111.077 10.9144C111.451 10.3429 111.992 9.89285 112.699 9.56422C113.421 9.2356 114.273 9.07129 115.258 9.07129C116.714 9.07129 117.858 9.44278 118.69 10.1858C119.536 10.9287 120.021 11.9146 120.146 13.1434H116.86C116.803 12.729 116.623 12.4004 116.318 12.1575C116.027 11.9146 115.639 11.7932 115.154 11.7932C114.738 11.7932 114.419 11.8788 114.197 12.0504C113.975 12.2075 113.865 12.429 113.865 12.7147C113.865 13.0576 114.038 13.3148 114.384 13.4863C114.744 13.6578 115.3 13.8292 116.049 14.0006C116.908 14.2293 117.609 14.4579 118.149 14.6865C118.69 14.9008 119.162 15.258 119.563 15.7581C119.98 16.2439 120.194 16.9011 120.208 17.7298C120.208 18.43 120.014 19.0587 119.626 19.6159C119.251 20.1589 118.704 20.5875 117.983 20.9018C117.276 21.2161 116.45 21.3733 115.507 21.3733Z" fill="white"></path><path id="Vector_11" d="M133.222 9.24268V21.2017H129.665V19.573C129.304 20.1017 128.812 20.5303 128.188 20.8589C127.578 21.1732 126.899 21.3303 126.15 21.3303C125.262 21.3303 124.478 21.1304 123.799 20.7303C123.119 20.3159 122.593 19.7229 122.219 18.9514C121.844 18.1798 121.657 17.2726 121.657 16.2296V9.24268H125.193V15.7366C125.193 16.5367 125.394 17.1582 125.796 17.6012C126.198 18.0442 126.739 18.2656 127.418 18.2656C128.112 18.2656 128.659 18.0442 129.062 17.6012C129.464 17.1582 129.665 16.5367 129.665 15.7366V9.24268H133.222Z" fill="white"></path><path id="Vector_12" d="M149.962 9.11377C151.405 9.11377 152.549 9.56384 153.395 10.464C154.255 11.3641 154.685 12.6144 154.685 14.2146V21.2014H151.148V14.7075C151.148 13.936 150.948 13.3431 150.545 12.9287C150.157 12.5001 149.616 12.2857 148.923 12.2857C148.229 12.2857 147.682 12.5001 147.279 12.9287C146.892 13.3431 146.697 13.936 146.697 14.7075V21.2014H143.16V14.7075C143.16 13.936 142.96 13.3431 142.558 12.9287C142.169 12.5001 141.629 12.2857 140.935 12.2857C140.242 12.2857 139.694 12.5001 139.292 12.9287C138.904 13.3431 138.71 13.936 138.71 14.7075V21.2014H135.153V9.24236H138.71V10.7426C139.07 10.2425 139.541 9.84961 140.124 9.56384C140.707 9.2638 141.365 9.11377 142.1 9.11377C142.973 9.11377 143.75 9.30666 144.43 9.69244C145.123 10.0782 145.664 10.6283 146.052 11.3427C146.455 10.6855 147.002 10.1497 147.696 9.73531C148.389 9.32095 149.145 9.11377 149.962 9.11377Z" fill="white"></path></g><defs><clipPath id="clip0_718_179"><rect width="155" height="28" fill="white"></rect></clipPath></defs></svg>