<svg xmlns="http://www.w3.org/2000/svg" width="136" height="36" viewBox="0 0 136 36" fill="none"><path d="M44.9726 17.952C43.7726 18.144 42.6206 18.336 41.4686 18.528C41.0846 18.576 40.8446 18.72 40.7006 19.104C40.4126 19.632 40.0286 20.16 39.5486 20.64C37.2446 23.136 35.3726 26.064 33.4046 28.848C32.2046 30.576 30.9086 33.024 29.9006 34.56C29.3246 35.376 28.8446 35.952 28.4606 35.952C27.0206 35.952 28.1726 34.224 28.5086 33.648C29.9966 30.912 32.0606 28.512 33.5006 25.776C32.3966 26.448 31.2446 27.072 30.1406 27.744C25.8206 30.144 21.5006 32.16 16.9406 33.216C15.3566 33.6 13.7246 33.84 12.1886 33.6C10.2206 33.216 9.40456 31.584 10.2686 29.232C10.8446 27.888 11.5166 26.832 12.3806 25.632C13.9646 23.568 15.7406 21.84 17.7086 20.064C19.5326 18.528 21.4526 16.896 23.3246 15.408C23.5646 15.12 23.8526 14.88 24.0926 14.64C24.0926 14.64 24.0446 14.544 23.9966 14.448C23.2286 14.736 22.5566 15.024 21.7886 15.216C17.2766 16.656 12.8126 18.144 8.34856 19.104C6.18856 19.536 4.07656 19.728 1.96456 20.016C1.62856 20.064 1.24456 20.064 0.860563 20.016C0.524563 19.968 0.140562 19.824 0.140562 19.104C0.428562 19.056 0.668563 18.912 0.956563 18.912C5.46856 18.576 9.98056 17.472 14.4926 16.032C18.4286 14.832 22.4606 13.44 26.3486 12.144C27.8366 11.664 29.2286 10.944 30.6686 10.032C34.4126 7.536 38.1566 5.088 42.1886 3.12C43.9646 2.208 45.7886 1.536 47.6606 0.815998C48.0926 0.623998 48.6206 0.575998 49.0526 0.623998C49.9646 0.671997 50.2526 1.632 49.6286 2.544C49.1006 3.168 48.4286 3.696 47.8046 4.176C45.6446 5.856 43.4366 6.96 41.1326 7.92C37.9646 9.312 34.8446 10.512 31.6766 11.712C30.3806 12.192 29.0366 12.864 27.8846 13.728C23.4206 16.896 19.1486 20.4 15.2606 24.384C14.3486 25.44 13.4846 26.544 12.6686 27.648C12.1886 28.272 11.9006 29.04 11.6126 29.856C11.1806 30.912 11.4686 31.68 12.3806 31.872C13.2926 32.064 14.2526 32.112 15.2606 31.92C18.5246 31.44 21.7886 30.24 24.9566 28.704C28.1726 27.168 31.3406 25.488 34.3646 23.376C35.5646 22.464 36.8606 21.456 37.7726 20.16C38.0126 19.824 38.2526 19.536 38.5886 19.008C37.0526 19.248 35.6606 19.536 34.2686 19.728C32.6366 20.112 30.9566 20.544 29.3246 20.928C29.0366 20.976 28.7486 20.976 28.5086 20.976C28.3166 20.928 28.1726 20.688 28.1726 20.592C28.1726 20.448 28.3166 20.064 28.4126 20.016C28.7966 19.728 29.1806 19.584 29.5646 19.488C34.8446 18.384 39.9326 17.664 44.9726 16.368C49.1486 15.312 48.3806 17.376 44.9726 17.952ZM47.5166 2.496C45.5966 2.736 37.4846 6.96 36.2846 8.352C38.8766 7.872 46.4126 3.984 47.5166 2.496ZM55.8281 18.384C56.5961 18.24 57.3161 18.192 57.9881 18.048C58.5161 17.952 59.3801 17.856 59.9561 17.76C60.2921 17.76 60.3881 17.76 60.6761 17.856C60.8681 17.952 61.0601 18.24 61.0121 18.48C61.0121 18.576 60.6761 18.864 60.5321 18.864C59.9081 19.008 59.3801 19.104 58.7561 19.152C57.5561 19.392 56.3561 19.536 55.2041 19.776C54.8681 19.824 54.5801 19.968 54.3401 20.256C52.9961 21.504 52.3241 22.368 51.1241 22.752C49.3961 23.28 47.6201 22.128 49.9721 18.384C50.7881 17.088 51.9881 16.08 53.2361 15.072C53.7641 14.688 54.2921 14.352 55.0601 14.304C56.1161 14.208 56.7401 14.688 56.6921 15.744C56.6921 16.224 56.4041 16.8 56.3081 17.376C56.1641 17.664 56.0201 17.952 55.8281 18.384ZM51.2201 18.624C49.0121 21.264 51.8441 22.56 53.0921 19.824C52.0841 19.824 51.4121 19.536 51.2201 18.624ZM55.3001 15.456C54.1001 15.84 53.3321 16.512 52.8041 17.424C52.6601 17.664 52.6121 17.952 52.9481 18.192C53.3321 18.576 54.1961 18.528 54.4361 18C54.8201 17.472 55.1081 16.8 55.3001 16.224C55.3961 16.128 55.3001 15.84 55.3001 15.456ZM63.2684 26.832C63.8924 26.544 64.3244 26.448 64.5644 26.16C65.8604 25.2 67.1564 24.192 68.3564 23.088C69.7484 21.84 71.4764 20.4 72.8204 19.056C74.2604 17.76 75.1724 18.288 73.5884 19.872C70.9964 22.512 68.4044 25.152 65.3324 27.264C64.9004 27.552 64.3724 27.84 63.8924 27.984C62.7884 28.368 61.8284 27.696 62.0204 26.544C62.1644 25.776 62.3084 25.056 62.6444 24.336C63.5564 22.416 64.5164 20.4 65.4764 18.48C65.5724 18.24 65.6684 18.048 65.6684 17.76C65.3804 18 65.1404 18.192 64.9004 18.384C63.8924 19.2 62.8364 20.016 61.7804 20.784C61.4444 20.928 61.0604 21.12 60.6764 21.168C59.8604 21.312 59.2844 20.784 59.3324 20.016C59.3804 19.584 59.6204 19.104 59.8124 18.672C60.6764 17.52 61.9244 16.704 63.3164 16.224C63.7484 16.032 64.2284 15.888 64.7564 15.888C65.5244 15.792 66.1004 15.408 66.6284 14.88C68.5964 12.672 70.1804 10.224 71.8124 7.728C71.9084 7.536 72.0524 7.248 72.2444 7.056C72.7244 6.432 73.1564 6.24 73.4924 6.432C73.9244 6.672 73.9244 7.152 73.4924 7.92C73.0604 8.496 72.6284 9.168 72.2924 9.744C69.4604 14.112 66.8204 18.48 64.5644 23.088C63.9884 24.192 63.5084 25.248 63.2684 26.832ZM60.9164 19.632C62.1164 19.152 63.1244 18.384 63.5564 17.616C62.4524 17.952 61.4444 18.624 60.9164 19.632ZM83.2942 18.384C83.5822 18.24 83.8702 18.144 84.1582 18.048C84.5422 18 84.7822 18.048 84.9742 18.384C85.1182 18.72 84.9742 19.056 84.6862 19.2C82.3342 20.4 79.6942 21.024 77.1502 21.168C75.4222 21.264 72.7822 21.072 73.4542 18.48C73.8862 17.232 74.1262 16.896 75.1822 16.32C76.3342 15.792 77.6302 15.6 78.7822 15.6C79.2622 15.648 79.6462 15.936 79.7422 16.416C79.8382 16.896 79.6462 17.328 79.2142 17.568C78.5902 17.952 77.8702 18.24 77.1022 18.48C76.5262 18.624 75.8542 18.672 75.2302 18.672C74.2702 18.672 74.2702 19.2 74.7022 19.632C75.9502 20.88 81.9502 19.632 83.2942 18.384ZM78.4462 16.992C79.3102 15.888 76.4302 16.992 74.8462 18.048C75.8062 18.144 77.6782 17.712 78.4462 16.992ZM92.1678 19.92C90.6318 19.824 90.4398 18.432 90.1518 17.328C89.3358 15.504 87.1758 17.808 86.4558 18.48C85.3518 19.392 84.4398 20.496 83.8638 21.6C83.4318 22.56 82.0878 22.992 82.0878 21.888C82.0878 21.6 82.2798 21.408 82.3758 21.168C83.5758 19.008 84.7278 16.8 85.9278 14.64C86.0718 14.352 86.3118 14.016 86.5518 13.776C86.6478 13.68 86.9358 13.584 87.0798 13.68C87.2238 13.776 87.3678 14.016 87.3198 14.208C87.3198 14.496 87.2238 14.784 87.1278 15.024C86.6958 15.84 86.3118 16.656 85.9758 17.568C86.1678 17.424 86.3598 17.28 86.4558 17.184C87.0798 16.704 87.6078 16.176 88.1838 15.792C88.5678 15.456 89.0478 15.264 89.4798 15.216C90.4398 14.976 91.0638 15.36 91.3518 16.272C91.4958 16.752 91.5438 17.232 91.6398 17.664C91.7838 18.384 92.0238 18.528 92.7918 18.48C93.0798 18.48 93.4638 18.432 93.7998 18.432C95.6238 18.288 95.0958 20.064 92.1678 19.92ZM102.48 19.92C100.944 19.824 100.752 18.432 100.464 17.328C99.6483 15.504 97.4883 17.808 96.7683 18.48C95.6643 19.392 94.7523 20.496 94.1763 21.6C93.7443 22.56 92.4003 22.992 92.4003 21.888C92.4003 21.6 92.5923 21.408 92.6883 21.168C93.8883 19.008 95.0403 16.8 96.2403 14.64C96.3843 14.352 96.6243 14.016 96.8643 13.776C96.9603 13.68 97.2483 13.584 97.3923 13.68C97.5363 13.776 97.6803 14.016 97.6323 14.208C97.6323 14.496 97.5363 14.784 97.4403 15.024C97.0083 15.84 96.6243 16.656 96.2883 17.568C96.4803 17.424 96.6723 17.28 96.7683 17.184C97.3923 16.704 97.9203 16.176 98.4963 15.792C98.8803 15.456 99.3603 15.264 99.7923 15.216C100.752 14.976 101.376 15.36 101.664 16.272C101.808 16.752 101.856 17.232 101.952 17.664C102.096 18.384 102.336 18.528 103.104 18.48C103.392 18.48 103.776 18.432 104.112 18.432C105.936 18.288 105.408 20.064 102.48 19.92ZM111.305 19.536C109.913 20.304 108.473 21.072 106.889 21.456C106.409 21.504 105.833 21.552 105.353 21.456C104.489 21.312 104.009 20.496 104.153 19.68C104.153 19.152 104.201 18.528 104.537 18.096C105.257 16.944 105.785 15.408 106.601 14.304C107.225 13.488 108.761 14.352 107.753 15.696C107.129 16.704 106.457 17.664 105.833 18.72C103.913 22.656 109.241 19.872 110.249 18.768C111.545 17.376 112.409 18.96 111.305 19.536ZM110.153 10.464C110.681 10.464 110.969 10.848 110.873 11.28C110.729 11.76 110.057 12.432 109.433 12.816C108.521 13.344 108.185 13.296 108.425 12.096C108.521 11.328 109.049 10.464 110.153 10.464ZM121.327 19.44C121.135 19.584 120.895 19.68 120.655 19.776C118.543 20.688 116.431 21.456 114.127 21.6C113.599 21.744 112.975 21.696 112.399 21.552C110.911 21.168 110.239 19.968 110.911 18.432C111.007 18.24 111.103 18 111.199 17.808C112.399 16.224 113.839 15.12 115.807 14.688C116.383 14.496 117.055 14.544 117.631 14.736C118.591 15.072 118.927 16.272 118.255 17.04C118.111 17.136 117.919 17.28 117.679 17.28C117.583 17.28 117.487 16.944 117.391 16.848C117.247 15.84 117.055 15.648 116.095 15.888C114.559 16.32 113.359 17.28 112.447 18.432C112.303 18.624 112.207 18.816 112.111 19.056C111.919 19.68 112.063 20.064 112.735 20.208C113.215 20.352 113.743 20.352 114.223 20.256C115.951 20.112 117.535 19.632 119.023 18.96C119.647 18.72 120.223 18.432 120.847 18.288C122.431 17.904 122.671 18.624 121.327 19.44ZM122.557 16.464C121.789 15.792 121.933 15.744 122.605 15.216C123.469 14.64 124.093 13.92 124.573 13.104C126.013 10.944 127.501 8.736 128.989 6.576C129.901 5.328 130.909 4.176 132.157 3.216C132.493 2.976 132.925 2.736 133.309 2.544C133.645 2.4 134.077 2.4 134.365 2.688C134.653 2.976 134.797 3.312 134.557 3.696C134.269 4.32 133.981 5.04 133.549 5.664C131.341 8.688 128.845 11.376 126.013 13.872C125.581 14.304 125.197 14.736 124.957 15.216C123.613 17.616 120.541 22.944 119.245 25.392C119.053 25.728 123.997 20.496 124.669 19.488C124.573 19.296 124.525 19.2 124.525 19.008C124.237 18.48 124.525 18.048 125.101 18.048C126.253 18.048 127.021 17.472 127.837 16.944C128.989 16.224 130.141 15.552 131.293 14.832C131.581 14.64 132.013 14.496 132.397 14.496C132.685 14.496 132.925 14.64 133.165 14.832C133.405 15.12 133.309 15.408 133.069 15.648C132.829 15.936 132.541 16.176 132.253 16.32C130.957 17.088 129.805 17.712 128.605 18.384C128.269 18.624 127.933 18.72 127.501 18.96C128.269 19.536 129.133 19.584 129.949 19.632C131.245 19.728 132.397 19.392 133.597 18.816C134.029 18.624 134.509 18.384 134.941 18.192C135.325 18.048 135.613 18.048 135.997 18C135.901 18.672 135.613 19.104 135.037 19.44C132.493 21.024 129.709 21.408 126.829 20.16C126.349 19.92 126.109 19.968 125.677 20.304C123.133 22.656 120.733 25.056 118.669 27.744C118.525 27.936 118.381 28.224 118.093 28.32C117.949 28.368 117.565 28.464 117.373 28.32C117.229 28.272 117.133 27.936 117.133 27.696C116.989 27.552 117.181 27.36 117.229 27.168C118.189 25.152 119.197 23.184 120.109 21.168C120.829 19.776 121.597 18.384 122.317 17.04C122.413 16.848 122.461 16.704 122.557 16.464ZM127.021 11.808C130.429 8.592 134.221 3.936 132.829 4.512C131.629 5.088 128.173 9.696 127.021 11.808Z" fill="url(#paint0_linear_355_50)"></path><defs><linearGradient id="paint0_linear_355_50" x1="5.13986e-07" y1="22.2" x2="136" y2="22.2" gradientUnits="userSpaceOnUse"><stop offset="0.0001" stop-color="#8DFD44"></stop><stop offset="0.0002" stop-color="#34FE41"></stop><stop offset="0.354167" stop-color="#8FFB49" stop-opacity="0.85"></stop><stop offset="1" stop-color="#FFFE4B"></stop><stop offset="1" stop-color="#FFFE4B"></stop></linearGradient></defs></svg>