<svg xmlns="http://www.w3.org/2000/svg" width="541" height="1313" viewBox="0 0 541 1313" fill="none"><ellipse opacity="0.15" cx="514" cy="800" rx="514" ry="513" fill="url(#paint0_radial_3605_403)"></ellipse><path d="M693.018 341.953C672.401 488.648 535.32 590.662 386.829 569.793C238.337 548.924 134.686 413.077 155.302 266.382C175.919 119.686 313 17.6721 461.491 38.5413C609.983 59.4104 713.635 195.257 693.018 341.953Z" stroke="#E3E3E3" stroke-opacity="0.1"></path><path d="M684.755 414.01C662.951 569.153 524.889 677.964 376.423 657.098C227.957 636.233 125.235 493.582 147.039 338.439C168.843 183.296 306.905 74.4847 455.371 95.3502C603.837 116.216 706.559 258.867 684.755 414.01Z" stroke="#E3E3E3" stroke-opacity="0.1"></path><defs><radialGradient id="paint0_radial_3605_403" cx="0" cy="0" r="1" gradientUnits="userSpaceOnUse" gradientTransform="translate(514 800) rotate(90) scale(513 514)"><stop stop-color="#F6FA20"></stop><stop offset="0.0001" stop-color="#F6FA20"></stop><stop offset="1" stop-color="#F6FA20" stop-opacity="0"></stop></radialGradient></defs></svg>