<svg xmlns="http://www.w3.org/2000/svg" width="108" height="107" viewBox="0 0 108 107" fill="none"><path d="M40.0628 54.229L53.529 32.2352L66.9953 54.229L53.529 62.074L40.0628 54.229Z" fill="url(#paint0_linear_1258_493)"></path><path d="M53.529 64.5452L66.564 56.4527L53.529 74.9852L40.1865 56.4527L53.529 64.5452Z" fill="url(#paint1_linear_1258_493)"></path><path d="M51.4056 98.1848L50.3422 106.602L48.8779 106.417L45.4817 99.3112L44.6515 105.883L43.4014 105.725L44.4647 97.308L45.8934 97.4885L49.3179 104.561L50.1436 98.0254L51.4056 98.1848Z" fill="white"></path><path d="M39.5989 95.9127L36.4758 103.801L31.0645 101.658L31.493 100.576L35.7216 102.25L36.7685 99.6062L33.1201 98.1616L33.553 97.0682L37.2014 98.5127L38.4163 95.4445L39.5989 95.9127Z" fill="white"></path><path d="M27.5459 89.7161L23.2433 95.6381L25.418 97.2181L24.7338 98.1598L19.3651 94.2592L20.0493 93.3175L22.2143 94.8904L26.5168 88.9684L27.5459 89.7161Z" fill="white"></path><path d="M12.8765 71.9258C13.1115 72.4253 13.2606 72.9298 13.3236 73.4395C13.3866 73.9492 13.3267 74.4327 13.1441 74.89C12.9614 75.3473 12.6261 75.7527 12.1381 76.1061L11.5812 74.9225C11.8409 74.6854 12.0083 74.421 12.0832 74.1293C12.1509 73.841 12.1526 73.544 12.0883 73.2383C12.0206 72.9253 11.9204 72.6277 11.7875 72.3454C11.6615 72.0776 11.5078 71.8449 11.3264 71.6473C11.1416 71.4425 10.9302 71.3033 10.6922 71.2296C10.4542 71.1559 10.2012 71.1821 9.93341 71.3081C9.73073 71.4035 9.58298 71.5217 9.49015 71.6626C9.39732 71.8035 9.34516 71.9651 9.33366 72.1474C9.31152 72.3258 9.32109 72.5246 9.36239 72.7439C9.3956 73.0024 9.44818 73.2738 9.52013 73.5583C9.58868 73.8354 9.64999 74.1161 9.70406 74.4001C9.75472 74.6768 9.78048 74.9476 9.78133 75.2125C9.7941 75.4275 9.79069 75.6457 9.77109 75.8671C9.74086 76.0847 9.68231 76.2891 9.59544 76.4803C9.50134 76.6749 9.37168 76.8597 9.20646 77.0347C9.03785 77.2024 8.82324 77.3476 8.56265 77.4702C8.2152 77.6337 7.89287 77.7191 7.59566 77.7263C7.29505 77.7263 7.01892 77.675 6.76728 77.5724C6.51223 77.4625 6.28145 77.3103 6.07494 77.1157C5.85779 76.9173 5.66448 76.6944 5.49502 76.447C5.32555 76.1996 5.18121 75.9492 5.062 75.6959C4.844 75.2326 4.71541 74.7715 4.67625 74.3125C4.63709 73.8534 4.71714 73.4223 4.91642 73.0191C5.10506 72.612 5.45124 72.2767 5.95496 72.0132L6.48123 73.1315C6.21978 73.2899 6.04691 73.4862 5.96259 73.7204C5.86764 73.9508 5.84208 74.1971 5.88594 74.4594C5.92255 74.7251 6.00217 74.9882 6.12479 75.2488C6.21336 75.437 6.32001 75.6167 6.44477 75.7879C6.56229 75.9624 6.70194 76.1089 6.86374 76.2273C7.0149 76.3418 7.18139 76.4138 7.3632 76.4432C7.54161 76.4653 7.73215 76.4287 7.93484 76.3334C8.10856 76.2516 8.24716 76.1422 8.35063 76.0051C8.44687 75.8714 8.51138 75.7172 8.54417 75.5427C8.56631 75.3643 8.57079 75.1765 8.55759 74.9793C8.53035 74.6208 8.46414 74.2452 8.35898 73.8527C8.24657 73.4635 8.16973 73.0841 8.12843 72.7145C8.09182 72.4488 8.08011 72.1891 8.09332 71.9353C8.09928 71.6849 8.14421 71.4516 8.2281 71.2353C8.30474 71.0224 8.42567 70.8284 8.59089 70.6534C8.74886 70.4818 8.95814 70.3347 9.21873 70.2121C9.64581 70.0112 10.0471 69.9151 10.4227 69.9241C10.791 69.9364 11.1269 70.0303 11.4305 70.2058C11.7341 70.3812 12.0094 70.6186 12.2564 70.9179C12.4961 71.2207 12.7028 71.5566 12.8765 71.9258Z" fill="white"></path><path d="M9.85859 63.4869L1.52487 65.0766L0.429808 59.3361L1.57319 59.118L2.4299 63.609L4.92884 63.1323L4.17107 59.16L5.30266 58.9441L6.06043 62.9165L8.47686 62.4555L7.62015 57.9645L8.76353 57.7464L9.85859 63.4869Z" fill="white"></path><path d="M8.46726 51.3226L0 50.7899L0.204948 47.5324C0.233581 47.0773 0.307607 46.6651 0.427026 46.2959C0.538462 45.9261 0.706765 45.6081 0.931936 45.3417C1.14912 45.0748 1.43415 44.8763 1.78701 44.7462C2.13988 44.6161 2.56781 44.5669 3.07082 44.5985C3.52592 44.6271 3.91212 44.7316 4.22943 44.9119C4.54674 45.0922 4.80439 45.3288 5.00238 45.6218C5.20037 45.9148 5.34421 46.2405 5.43388 46.5988L8.8651 44.9991L8.77694 46.4004L5.55761 47.8811L5.43328 49.8572L8.54713 50.0531L8.46726 51.3226ZM4.29553 49.7856L4.40404 48.0611C4.42212 47.7736 4.41899 47.5049 4.39464 47.2549C4.36281 46.9964 4.29703 46.7678 4.19731 46.5691C4.0896 46.37 3.93921 46.2122 3.74613 46.0959C3.54558 45.971 3.28561 45.8986 2.96624 45.8785C2.59947 45.8474 2.30353 45.9009 2.07841 46.039C1.84581 46.1687 1.67656 46.3745 1.57065 46.6564C1.45675 46.9378 1.387 47.2821 1.36138 47.6893L1.24157 49.5935L4.29553 49.7856Z" fill="white"></path><path d="M11.5289 37.5307L2.48488 37.9105L2.91503 36.5866L10.7762 36.3524L4.55035 31.5536L4.97308 30.2526L12.074 35.853L11.5289 37.5307Z" fill="white"></path><path d="M15.2613 29.1031L8.09798 24.5572L8.77955 23.4832L15.9428 28.0291L15.2613 29.1031Z" fill="white"></path><path d="M23.2607 19.5527C22.6251 20.1496 21.9655 20.5166 21.2821 20.6536C20.6044 20.7851 19.9359 20.716 19.2766 20.4462C18.6172 20.1765 17.9973 19.7325 17.4168 19.1143C16.8363 18.4962 16.4294 17.8467 16.1961 17.1658C15.9686 16.4795 15.9418 15.8024 16.1156 15.1343C16.2898 14.455 16.6947 13.8169 17.3304 13.2199C17.7911 12.7873 18.2646 12.4852 18.7511 12.3138C19.2321 12.1364 19.7062 12.0863 20.1736 12.1632C20.6413 12.2288 21.0853 12.4154 21.5058 12.7229L20.5961 13.5772C20.2293 13.362 19.8296 13.2928 19.3971 13.3698C18.9645 13.4467 18.5383 13.6824 18.1184 14.0767C17.6519 14.5148 17.377 14.9759 17.2939 15.46C17.2166 15.9386 17.2781 16.4132 17.4784 16.8835C17.6732 17.3481 17.9595 17.7816 18.3374 18.184C18.7262 18.598 19.1547 18.9199 19.6229 19.1497C20.0911 19.3795 20.5723 19.4654 21.0665 19.4073C21.5607 19.3493 22.0353 19.1067 22.4902 18.6795C22.7701 18.4166 22.9823 18.146 23.1269 17.8676C23.266 17.5833 23.34 17.2998 23.3489 17.0171C23.3523 16.7286 23.2872 16.4605 23.1535 16.2129L24.1244 15.3011C24.4046 15.7514 24.5567 16.2231 24.5809 16.7162C24.605 17.2094 24.5076 17.6959 24.2888 18.1757C24.07 18.6556 23.7273 19.1146 23.2607 19.5527Z" fill="white"></path><path d="M29.6706 14.4364L25.5834 7.00183L30.7045 4.18646L31.2653 5.20648L27.2588 7.40906L28.4844 9.63839L32.0282 7.69017L32.5832 8.69968L29.0394 10.6479L30.2245 12.8036L34.231 10.601L34.7917 11.621L29.6706 14.4364Z" fill="white"></path><path d="M42.7757 9.01079C42.241 9.14806 41.7175 9.19989 41.205 9.16628C40.6926 9.13267 40.2288 8.9833 39.8139 8.71817C39.3989 8.45304 39.0636 8.0477 38.8079 7.50215L40.0748 7.17687C40.2591 7.47645 40.4874 7.69037 40.7599 7.81864C41.0304 7.93917 41.3218 7.9965 41.6341 7.99063C41.9542 7.98278 42.2654 7.94006 42.5676 7.86247C42.8543 7.78885 43.1117 7.68147 43.3397 7.54032C43.5755 7.39718 43.7519 7.21561 43.8689 6.99561C43.9858 6.77561 44.0075 6.52226 43.9339 6.23556C43.8782 6.0186 43.7898 5.85132 43.6688 5.73373C43.5477 5.61614 43.3988 5.53462 43.2219 5.48918C43.0508 5.43399 42.8537 5.40614 42.6306 5.40562C42.3705 5.3898 42.094 5.39059 41.8011 5.40797C41.516 5.42336 41.2288 5.43101 40.9397 5.4309C40.6584 5.42881 40.3875 5.40336 40.1272 5.35457C39.9136 5.32682 39.6999 5.28258 39.4861 5.22185C39.278 5.15137 39.0882 5.05556 38.9167 4.93441C38.7432 4.80551 38.586 4.64352 38.445 4.44844C38.3118 4.25138 38.2094 4.01337 38.1378 3.73442C38.0423 3.36248 38.0189 3.02986 38.0674 2.73657C38.1238 2.44128 38.2259 2.17966 38.3739 1.9517C38.5296 1.72175 38.7224 1.52359 38.9522 1.3572C39.1878 1.18107 39.443 1.03296 39.7178 0.912855C39.9925 0.79275 40.2655 0.697882 40.5367 0.628249C41.0326 0.500919 41.5097 0.461024 41.9679 0.508564C42.4261 0.556103 42.8346 0.715527 43.1933 0.986835C43.5578 1.2484 43.8223 1.65128 43.9868 2.19547L42.7897 2.50285C42.6831 2.21636 42.5227 2.00976 42.3084 1.88306C42.0999 1.74662 41.8628 1.67537 41.5969 1.66929C41.3291 1.65547 41.0557 1.68437 40.7767 1.75599C40.5752 1.80772 40.3787 1.87882 40.1872 1.96929C39.9937 2.05201 39.8237 2.16175 39.6771 2.2985C39.5362 2.42552 39.4343 2.57557 39.3714 2.74866C39.3162 2.91976 39.3165 3.11379 39.3722 3.33075C39.4199 3.51672 39.5015 3.67337 39.6168 3.8007C39.73 3.92028 39.8694 4.01253 40.0347 4.07745C40.2058 4.13263 40.3894 4.17222 40.5855 4.19619C40.9428 4.23661 41.3241 4.24195 41.7295 4.21222C42.1328 4.17473 42.5199 4.17033 42.8907 4.19902C43.1585 4.21284 43.4158 4.25002 43.6627 4.31054C43.9075 4.36332 44.1283 4.45117 44.325 4.5741C44.5198 4.68928 44.6876 4.84441 44.8286 5.03949C44.9675 5.22682 45.0728 5.45996 45.1444 5.73891C45.2618 6.19608 45.2809 6.60828 45.2018 6.97551C45.1206 7.33498 44.9654 7.64739 44.7362 7.91273C44.507 8.17807 44.2222 8.40398 43.8819 8.59047C43.5396 8.76922 43.1709 8.90932 42.7757 9.01079Z" fill="white"></path><path d="M62.2205 8.21746L64.3304 0L67.4569 0.802771C67.8521 0.904236 68.2035 1.03162 68.511 1.18492C68.8283 1.33245 69.0862 1.51842 69.2846 1.74282C69.485 1.95947 69.6124 2.21931 69.6667 2.52235C69.7308 2.81962 69.7111 3.16973 69.6077 3.57266C69.5062 3.96784 69.3256 4.3014 69.0658 4.57333C68.808 4.83752 68.4771 5.00035 68.0731 5.06181C68.5334 5.29563 68.8448 5.61097 69.0072 6.00783C69.1774 6.40668 69.1928 6.8773 69.0535 7.41971C68.9342 7.88463 68.7495 8.25018 68.4994 8.51636C68.2493 8.78253 67.9503 8.96594 67.6024 9.06656C67.2544 9.16719 66.8729 9.20552 66.4578 9.18154C66.0428 9.15756 65.6105 9.08787 65.1611 8.97248L62.2205 8.21746ZM63.742 7.40636L65.4971 7.85699C65.7295 7.91667 65.965 7.96474 66.2034 8.00118C66.4438 8.02987 66.6718 8.02646 66.8874 7.99097C67.1108 7.95746 67.3024 7.87039 67.4624 7.72976C67.6302 7.59112 67.7509 7.37846 67.8245 7.09175C67.8862 6.85155 67.8904 6.64202 67.8372 6.46317C67.786 6.27657 67.6948 6.11689 67.5638 5.98411C67.4327 5.85134 67.2675 5.73872 67.0682 5.64626C66.8767 5.55579 66.6724 5.4827 66.4555 5.427L64.3866 4.89579L63.742 7.40636ZM64.6582 3.8381L66.2156 4.238C66.4791 4.30564 66.7253 4.34407 66.9542 4.35328C67.1908 4.36449 67.4044 4.33674 67.595 4.27004C67.7856 4.20334 67.9444 4.09957 68.0714 3.95873C68.2081 3.81213 68.3074 3.61873 68.369 3.37852C68.4584 3.06282 68.4483 2.81245 68.3389 2.62742C68.2392 2.43664 68.0752 2.28716 67.8469 2.179C67.6207 2.06308 67.3642 1.96832 67.0775 1.8947L65.2759 1.43214L64.6582 3.8381Z" fill="white"></path><path d="M73.3156 11.845L77.4027 4.41045L82.5239 7.22581L81.9631 8.24584L77.9566 6.04326L76.7311 8.27258L80.2749 10.2208L79.7199 11.2303L76.1761 9.28209L74.991 11.4378L78.9975 13.6404L78.4367 14.6604L73.3156 11.845Z" fill="white"></path><path d="M84.9183 20.0028C84.516 19.6249 84.1917 19.2106 83.9454 18.7599C83.6992 18.3092 83.5769 17.8377 83.5784 17.3452C83.5799 16.8528 83.7424 16.3525 84.066 15.8443L85.0195 16.7397C84.8653 17.0558 84.8071 17.3632 84.8448 17.662C84.8879 17.955 84.9957 18.2317 85.168 18.4923C85.3462 18.7584 85.549 18.9982 85.7764 19.2118C85.9922 19.4144 86.2207 19.5742 86.4621 19.6911C86.7093 19.8135 86.9572 19.8651 87.2056 19.846C87.454 19.8269 87.6795 19.7094 87.8821 19.4937C88.0355 19.3304 88.1294 19.1661 88.1638 19.0009C88.1982 18.8357 88.1872 18.6663 88.1308 18.4926C88.0857 18.3185 88.0036 18.1372 87.8845 17.9485C87.7585 17.7204 87.6097 17.4874 87.4381 17.2494C87.2723 17.0169 87.112 16.7786 86.9572 16.5344C86.8082 16.2958 86.6845 16.0534 86.5863 15.8075C86.4952 15.6123 86.4181 15.4081 86.3548 15.1951C86.3028 14.9816 86.282 14.77 86.2924 14.5603C86.3083 14.3447 86.3608 14.1252 86.45 13.9017C86.545 13.6836 86.6911 13.4696 86.8882 13.2597C87.1511 12.9797 87.4194 12.7817 87.693 12.6656C87.9725 12.5549 88.2482 12.501 88.5199 12.5038C88.7975 12.512 89.0681 12.5686 89.3317 12.6735C89.6067 12.7781 89.8685 12.9142 90.1171 13.0818C90.3658 13.2494 90.5921 13.4291 90.7962 13.6208C91.1695 13.9712 91.4588 14.3527 91.6642 14.765C91.8696 15.1774 91.9538 15.6077 91.917 16.056C91.8914 16.5039 91.693 16.9431 91.3217 17.3736L90.4207 16.5275C90.6054 16.284 90.6939 16.0378 90.6861 15.789C90.6896 15.5399 90.6227 15.3015 90.4853 15.0737C90.3535 14.8402 90.1826 14.6248 89.9726 14.4277C89.821 14.2853 89.6557 14.1575 89.4767 14.0442C89.3032 13.9252 89.1194 13.8404 88.9254 13.7899C88.7427 13.7391 88.5614 13.7334 88.3815 13.773C88.2075 13.8181 88.0438 13.9223 87.8905 14.0856C87.759 14.2256 87.6704 14.3783 87.6247 14.5439C87.5845 14.7036 87.5812 14.8707 87.615 15.0451C87.6601 15.2191 87.7251 15.3954 87.8099 15.5738C87.9672 15.8971 88.167 16.2219 88.4093 16.5482C88.6571 16.8687 88.8682 17.1932 89.0427 17.5216C89.1745 17.7552 89.281 17.9923 89.3622 18.2332C89.4488 18.4681 89.4929 18.7016 89.4945 18.9336C89.5016 19.1598 89.4606 19.3846 89.3714 19.6082C89.2877 19.8259 89.1473 20.0397 88.9501 20.2496C88.627 20.5937 88.2892 20.8307 87.9367 20.9606C87.5897 21.0847 87.2428 21.1211 86.896 21.0697C86.5491 21.0184 86.2058 20.899 85.866 20.7116C85.5316 20.5184 85.2158 20.2821 84.9183 20.0028Z" fill="white"></path><path d="M91.8833 28.2281L98.0638 24.3059L96.6235 22.0363L97.6063 21.4126L101.162 27.0156L100.179 27.6393L98.7454 25.3799L92.5649 29.3021L91.8833 28.2281Z" fill="white"></path><path d="M97.7699 53.0144L99.3794 51.6507C99.2685 51.4172 99.1763 51.1625 99.1029 50.8865C99.0294 50.6106 98.9829 50.3169 98.9633 50.0055C98.908 49.1273 99.0449 48.3732 99.374 47.7433C99.7116 47.1209 100.198 46.6334 100.833 46.2808C101.468 45.9282 102.201 45.7258 103.031 45.6736C103.87 45.6208 104.626 45.7295 105.3 45.9997C105.975 46.2699 106.514 46.6929 106.919 47.2686C107.333 47.8518 107.567 48.5825 107.622 49.4608C107.677 50.339 107.54 51.0891 107.211 51.7111C106.881 52.333 106.399 52.8202 105.764 53.1728C105.128 53.5254 104.392 53.728 103.553 53.7808C102.843 53.8255 102.197 53.7499 101.615 53.554C101.042 53.3656 100.547 53.0682 100.128 52.6616L98.5861 53.949L97.7699 53.0144ZM100.124 49.9205C100.164 50.5592 100.345 51.0729 100.666 51.4615C100.988 51.8581 101.394 52.1371 101.885 52.2986C102.376 52.4601 102.905 52.523 103.472 52.4873C104.039 52.4517 104.556 52.319 105.022 52.0892C105.489 51.8675 105.853 51.5439 106.115 51.1187C106.385 50.6929 106.5 50.1646 106.46 49.5339C106.421 48.9031 106.24 48.3894 105.919 47.9928C105.598 47.6042 105.187 47.3255 104.688 47.1565C104.196 46.987 103.671 46.9199 103.112 46.955C102.553 46.9902 102.04 47.1187 101.573 47.3404C101.107 47.5702 100.738 47.8979 100.469 48.3237C100.199 48.7575 100.085 49.2897 100.124 49.9205Z" fill="white"></path><path d="M98.2072 61.538C98.3571 60.7522 98.6372 60.1378 99.0475 59.6948C99.4641 59.2612 99.9739 58.9797 100.577 58.8504C101.18 58.7211 101.85 58.7269 102.589 58.8678L107.281 59.7628L107.042 61.0122L102.339 60.115C101.875 60.0266 101.434 60.0117 101.016 60.0703C100.598 60.129 100.241 60.293 99.9448 60.5623C99.6491 60.8317 99.4503 61.2336 99.3483 61.7679C99.2449 62.3101 99.2818 62.757 99.4591 63.1084C99.6364 63.4599 99.9095 63.7359 100.278 63.9366C100.647 64.1373 101.064 64.2819 101.527 64.3703L106.23 65.2675L105.99 66.5287L101.298 65.6338C100.568 65.4944 99.9418 65.2529 99.421 64.9092C98.908 64.567 98.5377 64.1176 98.3099 63.5611C98.09 63.0061 98.0558 62.3317 98.2072 61.538Z" fill="white"></path><path d="M96.4454 68.7039L102.758 75.2153L102.058 76.7028L93.0221 75.9787L93.6046 74.7409L95.4121 74.9018L97.1391 71.2318L95.8629 69.9417L96.4454 68.7039ZM97.9918 72.0972L96.6224 75.0072L101.314 75.4376L97.9918 72.0972Z" fill="white"></path><path d="M90.1879 79.9753L96.7249 85.3832L95.9141 86.3633L90.274 81.6974L87.3826 85.1924L86.4857 84.4504L90.1879 79.9753Z" fill="white"></path><path d="M80.9925 89.1071L85.9793 95.9708L84.9502 96.7185L79.9634 89.8548L80.9925 89.1071Z" fill="white"></path><path d="M70.895 94.8065L73.5896 101.612L76.0889 100.623L76.5174 101.705L70.3474 104.148L69.9189 103.066L72.407 102.081L69.7123 95.2748L70.895 94.8065Z" fill="white"></path><path d="M60.1508 97.6978L60.5493 100.853L64.25 105.731L62.7856 105.916L60.0613 102.16L58.3687 106.474L56.9401 106.655L59.3008 101.023L58.9007 97.8557L60.1508 97.6978Z" fill="white"></path><defs><linearGradient id="paint0_linear_1258_493" x1="4.06782e-07" y1="55.9938" x2="107.634" y2="55.9938" gradientUnits="userSpaceOnUse"><stop offset="0.0001" stop-color="#8DFD44"></stop><stop offset="0.0002" stop-color="#34FE41"></stop><stop offset="0.354167" stop-color="#8FFB49" stop-opacity="0.85"></stop><stop offset="1" stop-color="#FFFE4B"></stop><stop offset="1" stop-color="#FFFE4B"></stop></linearGradient><linearGradient id="paint1_linear_1258_493" x1="4.06782e-07" y1="55.9938" x2="107.634" y2="55.9938" gradientUnits="userSpaceOnUse"><stop offset="0.0001" stop-color="#8DFD44"></stop><stop offset="0.0002" stop-color="#34FE41"></stop><stop offset="0.354167" stop-color="#8FFB49" stop-opacity="0.85"></stop><stop offset="1" stop-color="#FFFE4B"></stop><stop offset="1" stop-color="#FFFE4B"></stop></linearGradient></defs></svg>